<svg width="70" height="62" viewBox="0 0 70 62" fill="none" xmlns="http://www.w3.org/2000/svg">
<path d="M69.9434 5.89643C69.8058 5.47519 69.4418 5.1673 69.002 5.10304L64.823 4.49518L62.9528 0.708149C62.5608 -0.0898908 61.2529 -0.0898908 60.8609 0.708149L58.9907 4.49518L54.8116 5.10318C54.3718 5.1673 54.0078 5.47424 53.8689 5.89657C53.7325 6.3189 53.8455 6.7832 54.1641 7.09247L57.1893 10.0407L56.4754 14.2035C56.4007 14.641 56.5804 15.0831 56.9386 15.3445C57.3014 15.6083 57.775 15.6408 58.1682 15.4331L61.9063 13.4672L65.6444 15.4331C65.8147 15.5229 66.0026 15.5672 66.1881 15.5672C66.4296 15.5672 66.6712 15.4926 66.8742 15.3444C67.2335 15.0831 67.4131 14.6408 67.3374 14.2033L66.6235 10.0406L69.6487 7.09233C69.9656 6.78197 70.08 6.31876 69.9434 5.89643ZM64.5558 8.79915C64.2817 9.0663 64.1556 9.45363 64.221 9.83167L64.6387 12.2689L62.4501 11.1185C62.2797 11.0287 62.0931 10.9844 61.9063 10.9844C61.7197 10.9844 61.5342 11.0287 61.3626 11.1185L59.1738 12.2689L59.5915 9.83167C59.6568 9.45363 59.5308 9.06753 59.2567 8.79915L57.4845 7.0725L59.9322 6.71662C60.3126 6.6618 60.6404 6.42267 60.8108 6.07841L61.9051 3.86175L62.9994 6.07841C63.1697 6.42253 63.4976 6.6618 63.878 6.71662L66.3257 7.0725L64.5558 8.79915Z" fill="#2196F3"/>
<path d="M57.1669 40.8923H54.8335V43.2257H57.1669V40.8923Z" fill="#2196F3"/>
<path d="M57.1669 45.5591H54.8335V47.8925H57.1669V45.5591Z" fill="#2196F3"/>
<path d="M59.5004 43.2257H57.167V45.5591H59.5004V43.2257Z" fill="#2196F3"/>
<path d="M54.8339 43.2257H52.5005V45.5591H54.8339V43.2257Z" fill="#2196F3"/>
<path d="M49.0004 53.7258H46.667V56.0592H49.0004V53.7258Z" fill="#2196F3"/>
<path d="M49.0004 58.3926H46.667V60.726H49.0004V58.3926Z" fill="#2196F3"/>
<path d="M51.3334 56.0593H49V58.3927H51.3334V56.0593Z" fill="#2196F3"/>
<path d="M46.6669 56.0593H44.3335V58.3927H46.6669V56.0593Z" fill="#2196F3"/>
<path d="M34.9999 49.0592H32.6665V51.3926H34.9999V49.0592Z" fill="#2196F3"/>
<path d="M34.9999 53.7258H32.6665V56.0592H34.9999V53.7258Z" fill="#2196F3"/>
<path d="M37.3334 51.3925H35V53.7259H37.3334V51.3925Z" fill="#2196F3"/>
<path d="M32.6664 51.3925H30.333V53.7259H32.6664V51.3925Z" fill="#2196F3"/>
<path d="M12.8329 9.39185H10.4995V11.7253H12.8329V9.39185Z" fill="#2196F3"/>
<path d="M12.8329 14.0586H10.4995V16.392H12.8329V14.0586Z" fill="#2196F3"/>
<path d="M15.1664 11.7252H12.833V14.0586H15.1664V11.7252Z" fill="#2196F3"/>
<path d="M10.4994 11.7252H8.16602V14.0586H10.4994V11.7252Z" fill="#2196F3"/>
<path d="M54.0635 26.9739C53.4347 26.1257 52.5119 25.5797 51.4642 25.4326C50.4118 25.2833 49.3734 25.5598 48.5334 26.2026L45.7952 28.3014L45.794 28.3027L41.6428 31.4025L38.6724 30.2195C43.9691 27.843 47.6711 22.5451 47.6711 16.3943C47.6711 8.03147 40.8401 1.22742 32.4436 1.22742C24.047 1.22742 17.2161 8.03147 17.2161 16.3943C17.2161 19.4254 18.1226 22.244 19.6662 24.6158L13.6204 24.5633C13.6168 24.5633 13.6134 24.5633 13.6099 24.5633C13.5911 24.5633 13.5761 24.5726 13.5586 24.5739C13.4431 24.5785 13.3298 24.6019 13.2191 24.6416C13.1911 24.6521 13.162 24.658 13.1352 24.6707C13.1212 24.6765 13.1071 24.6776 13.0932 24.6846L6.02075 28.1765C6.01952 28.1765 6.01843 28.1765 6.01843 28.1776L1.8766 30.1693C1.83107 30.1891 1.78445 30.2159 1.73892 30.2463C0.0880191 31.3452 -0.474314 33.5037 0.429958 35.2676C0.911763 36.2057 1.73195 36.8964 2.73999 37.2125C3.12856 37.3338 3.52518 37.3934 3.91949 37.3934C4.55305 37.3934 5.18074 37.2382 5.75578 36.9314L8.79154 35.3167L13.7441 32.7594L16.7122 32.7418L4.80844 44.5884C4.80735 44.5897 4.80612 44.5897 4.80489 44.5908L1.87647 47.5074C1.18466 48.1958 0.8043 49.1092 0.8043 50.0835C0.8043 51.0566 1.18466 51.9723 1.87647 52.6619C2.587 53.3689 3.52149 53.7236 4.45598 53.7236C5.3917 53.7236 6.32495 53.3689 7.03782 52.6619L9.91251 49.7989L13.7206 46.9556L15.6912 48.918L11.8375 52.7552C11.8364 52.7564 11.8352 52.7564 11.834 52.7575L8.90556 55.6742C8.21375 56.3626 7.8334 57.276 7.8334 58.2503C7.8334 59.2233 8.21375 60.1391 8.90556 60.8287C9.6161 61.5357 10.5518 61.8903 11.4863 61.8903C12.4208 61.8903 13.3565 61.5357 14.0681 60.8287L16.9977 57.912L21.6842 53.2453C21.6854 53.2441 21.6854 53.243 21.6865 53.2418L23.8951 51.0542L23.8869 51.046C23.9008 51.0321 23.9207 51.0273 23.9347 51.0123L35.2353 38.6349L42.8281 39.7153C42.8829 39.7235 42.9377 39.7269 42.9925 39.7269C43.1338 39.7269 43.2702 39.6931 43.402 39.643C43.4406 39.629 43.4743 39.6103 43.5106 39.5917C43.5526 39.5706 43.5968 39.559 43.6366 39.5322L50.6659 34.8655C50.6916 34.848 50.7055 34.82 50.73 34.8014C50.758 34.7793 50.793 34.77 50.8186 34.7454L53.5999 32.1401C55.0471 30.7841 55.2466 28.5628 54.0635 26.9739ZM4.66024 34.8722C4.28111 35.0753 3.85058 35.116 3.43878 34.9854C3.03039 34.8583 2.69912 34.5794 2.50538 34.2026C2.15305 33.5165 2.35718 32.6811 2.97433 32.2297L5.84793 30.8472L6.53974 32.869L6.83027 33.7183L4.66024 34.8722ZM12.3102 30.8741L8.92333 32.6241L8.36456 30.9907L7.96328 29.817L12.3967 27.6282L12.3102 30.8741ZM45.3402 16.3919C45.3402 18.4009 44.8607 20.2957 44.03 21.9908L34.8832 17.8363C34.7875 16.5821 34.1366 15.4843 33.1589 14.8005L36.3614 4.16856C41.5626 5.82302 45.3402 10.6752 45.3402 16.3919ZM19.5519 16.3919C19.5519 9.31596 25.3363 3.55837 32.446 3.55837C32.9991 3.55837 33.5403 3.60499 34.0759 3.67267L30.9433 14.0714C30.9014 14.0702 30.8617 14.0585 30.8185 14.0585C28.5597 14.0585 26.7222 15.8902 26.7222 18.142C26.7222 20.3936 28.5597 22.2254 30.8185 22.2254C32.3375 22.2254 33.65 21.3866 34.3582 20.1592L42.8073 23.9976C40.4564 27.1616 36.6938 29.2255 32.4459 29.2255C25.3363 29.2255 19.5519 23.4679 19.5519 16.3919ZM32.5814 18.142C32.5814 19.1068 31.7903 19.892 30.8185 19.892C29.8467 19.892 29.0556 19.1068 29.0556 18.142C29.0556 17.1771 29.8467 16.3919 30.8185 16.3919C31.7903 16.3919 32.5814 17.1771 32.5814 18.142ZM5.39183 51.0075C4.87503 51.5196 4.03843 51.5185 3.52286 51.0087C3.2743 50.7602 3.13785 50.4324 3.13785 50.0835C3.13785 49.7358 3.2743 49.408 3.52286 49.1619L5.6274 47.0653L7.48941 48.9192L5.39183 51.0075ZM12.4222 59.1744C11.9054 59.6865 11.0677 59.6878 10.552 59.1756C10.3034 58.927 10.1669 58.5993 10.1669 58.2504C10.1669 57.9027 10.3034 57.5749 10.552 57.3288L12.6579 55.2311L13.5388 56.1073L14.5211 57.085L12.4222 59.1744ZM20.0383 51.5862C20.0371 51.5873 20.036 51.5873 20.0348 51.5886L16.1742 55.4386L15.2933 54.5624L14.311 53.5847L18.168 49.7451C18.168 49.7451 18.168 49.7451 18.168 49.744C18.1692 49.7428 18.1703 49.7428 18.1715 49.7417C18.259 49.6542 18.3139 49.5492 18.3676 49.4454C18.3828 49.4151 18.4119 49.3894 18.4248 49.3579C18.461 49.2681 18.4667 49.1713 18.4808 49.0767C18.4878 49.023 18.5112 48.9729 18.5112 48.918C18.5112 48.8398 18.4831 48.764 18.4669 48.6869C18.4529 48.6169 18.4529 48.5457 18.426 48.4781C18.3817 48.3685 18.3058 48.2717 18.2265 48.1771C18.2044 48.1514 18.1962 48.1187 18.1717 48.0942C18.1717 48.0942 18.1717 48.0942 18.1705 48.0942C18.1692 48.0931 18.1692 48.0907 18.1681 48.0896L14.6529 44.5895C14.6156 44.5522 14.5677 44.537 14.5257 44.5056C14.464 44.4577 14.4045 44.4134 14.3356 44.3795C14.2691 44.3469 14.2014 44.327 14.1314 44.3083C14.0568 44.2872 13.9845 44.271 13.9063 44.2651C13.835 44.2604 13.7686 44.2674 13.6975 44.2756C13.6193 44.2849 13.5459 44.2954 13.47 44.3199C13.3964 44.3433 13.3312 44.3794 13.2635 44.4179C13.2203 44.4424 13.1714 44.4506 13.1305 44.481L9.25133 47.3767L7.28077 45.4144L12.5285 40.1946L22.0674 49.576L20.0383 51.5862ZM34.9544 36.2373C34.9207 36.2326 34.8891 36.2455 34.8553 36.2431C34.7701 36.2385 34.6885 36.2444 34.6034 36.2583C34.5369 36.2699 34.4739 36.2828 34.4108 36.3049C34.3362 36.3306 34.2685 36.3656 34.1996 36.4076C34.1343 36.4473 34.0748 36.4892 34.0176 36.5417C33.9896 36.5662 33.9558 36.578 33.9301 36.6059L23.6527 47.8621L14.185 38.5507L20.3825 32.386C20.8387 31.931 20.841 31.1924 20.386 30.7351C20.1562 30.5052 19.854 30.392 19.5519 30.3933V30.3922L14.6984 30.4213L14.7591 26.905L21.5492 26.9633C24.3166 29.7937 28.176 31.5589 32.446 31.5589C33.4027 31.5589 34.3361 31.4598 35.2448 31.2906C35.3323 31.3606 35.4186 31.4318 35.5284 31.4761L40.7995 33.5761L41.1331 35.2351L41.5228 37.1717L34.9544 36.2373ZM43.7944 36.6269L43.1096 33.219L46.2736 30.8565L47.102 31.9554L48.3445 33.6051L43.7944 36.6269ZM52.0055 30.4341L50.1726 32.1515L48.1356 29.4471L49.9544 28.053C50.2938 27.7917 50.7221 27.6855 51.1421 27.7403C51.5644 27.7998 51.9378 28.0203 52.1921 28.3621C52.6658 29.0003 52.5853 29.8905 52.0055 30.4341Z" fill="#212121"/>
<path d="M29.7547 36.5651L25.0669 31.8984C24.6131 31.4447 23.8757 31.4447 23.4207 31.8984L18.7341 36.5651C18.5148 36.7857 18.3911 37.0819 18.3911 37.3923C18.3911 37.7026 18.5136 38.0002 18.7341 38.2195L23.4207 42.8861C23.6482 43.1124 23.9469 43.2256 24.2444 43.2256C24.5419 43.2256 24.8405 43.1124 25.0669 42.8861L29.7547 38.2195C29.974 38.0002 30.0988 37.7026 30.0988 37.3923C30.0988 37.0819 29.9751 36.7844 29.7547 36.5651ZM24.2444 40.4129L21.211 37.3923L24.2444 34.3717L27.2789 37.3923L24.2444 40.4129Z" fill="#212121"/>
<path d="M37.547 7.09229L36.9834 9.35802C37.1386 9.39658 40.7845 10.3462 40.7845 14.0586H43.1179C43.1178 9.64609 39.4743 7.57177 37.547 7.09229Z" fill="#212121"/>
<path d="M43.1176 16.392H40.7842V18.7254H43.1176V16.392Z" fill="#212121"/>
</svg>
