<svg width="170" height="90" viewBox="0 0 170 90" fill="none" xmlns="http://www.w3.org/2000/svg">
<rect x="0.5" y="0.5" width="169" height="89" rx="3.5" stroke="#AFB1B8"/>
<path d="M57.4022 36.8306H57.3995C55.1372 36.8306 53.3032 38.6177 53.3032 40.8223V40.8249C53.3032 43.0295 55.1372 44.8167 57.3995 44.8167H57.4022C59.6645 44.8167 61.4985 43.0295 61.4985 40.8249V40.8223C61.4985 38.6177 59.6645 36.8306 57.4022 36.8306Z" fill="#AFB1B8"/>
<path d="M87.6368 35.5545C87.6304 32.4924 86.3795 29.5575 84.1579 27.3921C81.9363 25.2266 78.925 24.007 75.7828 24V24C72.6397 24.0056 69.6269 25.2246 67.4041 27.3902C65.1814 29.5558 63.9298 32.4915 63.9233 35.5545V35.5545V52.4402C63.9233 52.4402 87.6341 49.8667 87.6368 35.5571V35.5545Z" fill="#AFB1B8"/>
<path d="M45 57.9823C45.0057 60.1129 45.8766 62.1547 47.4223 63.6615C48.968 65.1683 51.0629 66.0177 53.2492 66.0239V66.0239C55.4351 66.0177 57.5296 65.1687 59.0752 63.6625C60.6209 62.1562 61.492 60.1151 61.4985 57.9849V57.9849V46.2356C61.4985 46.2356 45 48.0276 45 57.9823ZM53.2492 60.0874C52.822 60.0874 52.4043 59.964 52.0491 59.7326C51.6938 59.5013 51.417 59.1726 51.2535 58.7879C51.09 58.4032 51.0472 57.98 51.1305 57.5716C51.2139 57.1632 51.4196 56.7881 51.7217 56.4937C52.0239 56.1993 52.4088 55.9988 52.8278 55.9176C53.2468 55.8364 53.6812 55.8781 54.0759 56.0374C54.4706 56.1967 54.808 56.4665 55.0454 56.8127C55.2827 57.1589 55.4094 57.5659 55.4094 57.9823C55.4105 58.2594 55.3554 58.534 55.2473 58.7903C55.1392 59.0466 54.9803 59.2796 54.7796 59.476C54.5789 59.6723 54.3404 59.828 54.0778 59.9343C53.8152 60.0406 53.5336 60.0953 53.2492 60.0953V60.0874Z" fill="#AFB1B8"/>
<path d="M68.4019 56.2588V60.5244H67.5229V56.2588H68.4019ZM70.1011 58.0811V58.7666H68.1616V58.0811H70.1011ZM70.3062 56.2588V56.9473H68.1616V56.2588H70.3062ZM74.3198 58.292V58.4941C74.3198 58.8184 74.2759 59.1094 74.188 59.3672C74.1001 59.625 73.9761 59.8447 73.8159 60.0264C73.6558 60.2061 73.4644 60.3438 73.2417 60.4395C73.021 60.5352 72.7759 60.583 72.5063 60.583C72.2388 60.583 71.9937 60.5352 71.771 60.4395C71.5503 60.3438 71.3589 60.2061 71.1968 60.0264C71.0347 59.8447 70.9087 59.625 70.8188 59.3672C70.731 59.1094 70.687 58.8184 70.687 58.4941V58.292C70.687 57.9658 70.731 57.6748 70.8188 57.4189C70.9067 57.1611 71.0308 56.9414 71.1909 56.7598C71.353 56.5781 71.5444 56.4395 71.7651 56.3438C71.9878 56.248 72.2329 56.2002 72.5005 56.2002C72.77 56.2002 73.0151 56.248 73.2358 56.3438C73.4585 56.4395 73.6499 56.5781 73.8101 56.7598C73.9722 56.9414 74.0972 57.1611 74.1851 57.4189C74.2749 57.6748 74.3198 57.9658 74.3198 58.292ZM73.4321 58.4941V58.2861C73.4321 58.0596 73.4116 57.8604 73.3706 57.6885C73.3296 57.5166 73.269 57.3721 73.189 57.2549C73.1089 57.1377 73.0112 57.0498 72.896 56.9912C72.7808 56.9307 72.6489 56.9004 72.5005 56.9004C72.3521 56.9004 72.2202 56.9307 72.105 56.9912C71.9917 57.0498 71.895 57.1377 71.8149 57.2549C71.7368 57.3721 71.6772 57.5166 71.6362 57.6885C71.5952 57.8604 71.5747 58.0596 71.5747 58.2861V58.4941C71.5747 58.7188 71.5952 58.918 71.6362 59.0918C71.6772 59.2637 71.7378 59.4092 71.8179 59.5283C71.8979 59.6455 71.9956 59.7344 72.1108 59.7949C72.2261 59.8555 72.3579 59.8857 72.5063 59.8857C72.6548 59.8857 72.7866 59.8555 72.9019 59.7949C73.0171 59.7344 73.1138 59.6455 73.1919 59.5283C73.27 59.4092 73.3296 59.2637 73.3706 59.0918C73.4116 58.918 73.4321 58.7188 73.4321 58.4941ZM77.1733 59.4082C77.1733 59.332 77.1616 59.2637 77.1382 59.2031C77.1167 59.1406 77.0757 59.084 77.0151 59.0332C76.9546 58.9805 76.8696 58.9287 76.7603 58.8779C76.6509 58.8271 76.5093 58.7744 76.3354 58.7197C76.1421 58.6572 75.9585 58.5869 75.7847 58.5088C75.6128 58.4307 75.4604 58.3398 75.3276 58.2363C75.1968 58.1309 75.0933 58.0088 75.0171 57.8701C74.9429 57.7314 74.9058 57.5703 74.9058 57.3867C74.9058 57.209 74.9448 57.0479 75.0229 56.9033C75.1011 56.7568 75.2104 56.6318 75.3511 56.5283C75.4917 56.4229 75.6577 56.3418 75.8491 56.2852C76.0425 56.2285 76.2544 56.2002 76.4849 56.2002C76.7993 56.2002 77.0737 56.2568 77.3081 56.3701C77.5425 56.4834 77.7241 56.6387 77.853 56.8359C77.9839 57.0332 78.0493 57.2588 78.0493 57.5127H77.1763C77.1763 57.3877 77.1499 57.2783 77.0972 57.1846C77.0464 57.0889 76.9683 57.0137 76.8628 56.959C76.7593 56.9043 76.6284 56.877 76.4702 56.877C76.3179 56.877 76.1909 56.9004 76.0894 56.9473C75.9878 56.9922 75.9116 57.0537 75.8608 57.1318C75.8101 57.208 75.7847 57.2939 75.7847 57.3896C75.7847 57.4619 75.8022 57.5273 75.8374 57.5859C75.8745 57.6445 75.9292 57.6992 76.0015 57.75C76.0737 57.8008 76.1626 57.8486 76.2681 57.8936C76.3735 57.9385 76.4956 57.9824 76.6343 58.0254C76.8667 58.0957 77.0708 58.1748 77.2466 58.2627C77.4243 58.3506 77.5728 58.4492 77.6919 58.5586C77.811 58.668 77.9009 58.792 77.9614 58.9307C78.022 59.0693 78.0522 59.2266 78.0522 59.4023C78.0522 59.5879 78.0161 59.7539 77.9438 59.9004C77.8716 60.0469 77.7671 60.1709 77.6304 60.2725C77.4937 60.374 77.3306 60.4512 77.1411 60.5039C76.9517 60.5566 76.7397 60.583 76.5054 60.583C76.2944 60.583 76.0864 60.5557 75.8813 60.501C75.6763 60.4443 75.4897 60.3594 75.3218 60.2461C75.1558 60.1328 75.0229 59.9883 74.9233 59.8125C74.8237 59.6367 74.7739 59.4287 74.7739 59.1885H75.6558C75.6558 59.3213 75.6763 59.4336 75.7173 59.5254C75.7583 59.6172 75.8159 59.6914 75.8901 59.748C75.9663 59.8047 76.0562 59.8457 76.1597 59.8711C76.2651 59.8965 76.3804 59.9092 76.5054 59.9092C76.6577 59.9092 76.7827 59.8877 76.8804 59.8447C76.98 59.8018 77.0532 59.7422 77.1001 59.666C77.1489 59.5898 77.1733 59.5039 77.1733 59.4082ZM80.5571 56.2588V60.5244H79.6812V56.2588H80.5571ZM81.8696 56.2588V56.9473H78.3892V56.2588H81.8696ZM85.2329 59.8389V60.5244H82.9624V59.8389H85.2329ZM83.2495 56.2588V60.5244H82.3706V56.2588H83.2495ZM84.937 57.9961V58.6641H82.9624V57.9961H84.937ZM85.23 56.2588V56.9473H82.9624V56.2588H85.23ZM85.7456 56.2588H87.3364C87.6626 56.2588 87.9429 56.3076 88.1772 56.4053C88.4136 56.5029 88.5952 56.6475 88.7222 56.8389C88.8491 57.0303 88.9126 57.2656 88.9126 57.5449C88.9126 57.7734 88.8735 57.9697 88.7954 58.1338C88.7192 58.2959 88.6108 58.4316 88.4702 58.541C88.3315 58.6484 88.1685 58.7344 87.981 58.7988L87.7026 58.9453H86.3198L86.314 58.2598H87.3423C87.4966 58.2598 87.6245 58.2324 87.7261 58.1777C87.8276 58.123 87.9038 58.0469 87.9546 57.9492C88.0073 57.8516 88.0337 57.7383 88.0337 57.6094C88.0337 57.4727 88.0083 57.3545 87.9575 57.2549C87.9067 57.1553 87.8296 57.0791 87.7261 57.0264C87.6226 56.9736 87.4927 56.9473 87.3364 56.9473H86.6245V60.5244H85.7456V56.2588ZM88.1304 60.5244L87.1577 58.623L88.0864 58.6172L89.0708 60.4834V60.5244H88.1304ZM92.7446 59.0039H91.6577V58.3184H92.7446C92.9126 58.3184 93.0493 58.291 93.1548 58.2363C93.2603 58.1797 93.3374 58.1016 93.3862 58.002C93.4351 57.9023 93.4595 57.79 93.4595 57.665C93.4595 57.5381 93.4351 57.4199 93.3862 57.3105C93.3374 57.2012 93.2603 57.1133 93.1548 57.0469C93.0493 56.9805 92.9126 56.9473 92.7446 56.9473H91.9624V60.5244H91.0835V56.2588H92.7446C93.0786 56.2588 93.3647 56.3193 93.603 56.4404C93.8433 56.5596 94.0269 56.7246 94.1538 56.9355C94.2808 57.1465 94.3442 57.3877 94.3442 57.6592C94.3442 57.9346 94.2808 58.1729 94.1538 58.374C94.0269 58.5752 93.8433 58.7305 93.603 58.8398C93.3647 58.9492 93.0786 59.0039 92.7446 59.0039ZM97.813 59.8389V60.5244H95.5425V59.8389H97.813ZM95.8296 56.2588V60.5244H94.9507V56.2588H95.8296ZM97.5171 57.9961V58.6641H95.5425V57.9961H97.5171ZM97.8101 56.2588V56.9473H95.5425V56.2588H97.8101ZM100.292 56.2588V60.5244H99.4155V56.2588H100.292ZM101.604 56.2588V56.9473H98.1235V56.2588H101.604ZM104.967 59.8389V60.5244H102.697V59.8389H104.967ZM102.984 56.2588V60.5244H102.105V56.2588H102.984ZM104.671 57.9961V58.6641H102.697V57.9961H104.671ZM104.964 56.2588V56.9473H102.697V56.2588H104.964ZM105.48 56.2588H107.071C107.397 56.2588 107.677 56.3076 107.912 56.4053C108.148 56.5029 108.33 56.6475 108.457 56.8389C108.583 57.0303 108.647 57.2656 108.647 57.5449C108.647 57.7734 108.608 57.9697 108.53 58.1338C108.454 58.2959 108.345 58.4316 108.205 58.541C108.066 58.6484 107.903 58.7344 107.715 58.7988L107.437 58.9453H106.054L106.048 58.2598H107.077C107.231 58.2598 107.359 58.2324 107.46 58.1777C107.562 58.123 107.638 58.0469 107.689 57.9492C107.742 57.8516 107.768 57.7383 107.768 57.6094C107.768 57.4727 107.743 57.3545 107.692 57.2549C107.641 57.1553 107.564 57.0791 107.46 57.0264C107.357 56.9736 107.227 56.9473 107.071 56.9473H106.359V60.5244H105.48V56.2588ZM107.865 60.5244L106.892 58.623L107.821 58.6172L108.805 60.4834V60.5244H107.865ZM111.544 59.4082C111.544 59.332 111.533 59.2637 111.509 59.2031C111.488 59.1406 111.447 59.084 111.386 59.0332C111.326 58.9805 111.241 58.9287 111.131 58.8779C111.022 58.8271 110.88 58.7744 110.707 58.7197C110.513 58.6572 110.33 58.5869 110.156 58.5088C109.984 58.4307 109.832 58.3398 109.699 58.2363C109.568 58.1309 109.464 58.0088 109.388 57.8701C109.314 57.7314 109.277 57.5703 109.277 57.3867C109.277 57.209 109.316 57.0479 109.394 56.9033C109.472 56.7568 109.582 56.6318 109.722 56.5283C109.863 56.4229 110.029 56.3418 110.22 56.2852C110.414 56.2285 110.625 56.2002 110.856 56.2002C111.17 56.2002 111.445 56.2568 111.679 56.3701C111.914 56.4834 112.095 56.6387 112.224 56.8359C112.355 57.0332 112.42 57.2588 112.42 57.5127H111.547C111.547 57.3877 111.521 57.2783 111.468 57.1846C111.417 57.0889 111.339 57.0137 111.234 56.959C111.13 56.9043 111 56.877 110.841 56.877C110.689 56.877 110.562 56.9004 110.46 56.9473C110.359 56.9922 110.283 57.0537 110.232 57.1318C110.181 57.208 110.156 57.2939 110.156 57.3896C110.156 57.4619 110.173 57.5273 110.208 57.5859C110.246 57.6445 110.3 57.6992 110.373 57.75C110.445 57.8008 110.534 57.8486 110.639 57.8936C110.745 57.9385 110.867 57.9824 111.005 58.0254C111.238 58.0957 111.442 58.1748 111.618 58.2627C111.795 58.3506 111.944 58.4492 112.063 58.5586C112.182 58.668 112.272 58.792 112.333 58.9307C112.393 59.0693 112.423 59.2266 112.423 59.4023C112.423 59.5879 112.387 59.7539 112.315 59.9004C112.243 60.0469 112.138 60.1709 112.001 60.2725C111.865 60.374 111.702 60.4512 111.512 60.5039C111.323 60.5566 111.111 60.583 110.876 60.583C110.666 60.583 110.458 60.5557 110.252 60.501C110.047 60.4443 109.861 60.3594 109.693 60.2461C109.527 60.1328 109.394 59.9883 109.294 59.8125C109.195 59.6367 109.145 59.4287 109.145 59.1885H110.027C110.027 59.3213 110.047 59.4336 110.088 59.5254C110.129 59.6172 110.187 59.6914 110.261 59.748C110.337 59.8047 110.427 59.8457 110.531 59.8711C110.636 59.8965 110.751 59.9092 110.876 59.9092C111.029 59.9092 111.154 59.8877 111.251 59.8447C111.351 59.8018 111.424 59.7422 111.471 59.666C111.52 59.5898 111.544 59.5039 111.544 59.4082Z" fill="#AFB1B8"/>
</svg>
